<?xml version="1.0" encoding="UTF-8"?>
<svg id="Layer_1" data-name="Layer 1" xmlns="http://www.w3.org/2000/svg" xmlns:xlink="http://www.w3.org/1999/xlink" viewBox="0 0 640 640">
  <defs>
    <style>
      .cls-1 {
        fill: #251516;
      }

      .cls-2 {
        fill: #160a0b;
      }

      .cls-3 {
        fill: #332525;
      }

      .cls-4 {
        fill: url(#linear-gradient-3);
      }

      .cls-5 {
        fill: url(#linear-gradient-2);
      }

      .cls-6 {
        fill: #f4c1cc;
      }

      .cls-7 {
        fill: #0e7f4d;
      }

      .cls-8 {
        fill: #f06885;
      }

      .cls-9 {
        fill: #b35441;
      }

      .cls-10 {
        fill: #f6ede6;
      }

      .cls-11 {
        fill: url(#linear-gradient);
      }

      .cls-12 {
        fill: #0a603a;
      }

      .cls-13 {
        fill: #ef4463;
      }

      .cls-14 {
        fill: #9a1e1f;
      }

      .cls-15 {
        fill: #d13947;
      }

      .cls-16 {
        fill: #8a181b;
      }

      .cls-17 {
        fill: #fff;
      }

      .cls-18 {
        fill: #731112;
      }

      .cls-19 {
        fill: #a83e27;
      }

      .cls-20 {
        fill: #eff7f3;
      }

      .cls-21 {
        fill: #ee3e34;
      }

      .cls-22 {
        fill: #f179a4;
      }

      .cls-23 {
        fill: #787878;
      }

      .cls-24 {
        fill: #2d100e;
      }

      .cls-25 {
        fill: #491210;
      }
    </style>
    <linearGradient id="linear-gradient" x1="177.46" y1="185.91" x2="497.01" y2="185.91" gradientUnits="userSpaceOnUse">
      <stop offset="0" stop-color="#016938"/>
      <stop offset=".26" stop-color="#009348"/>
      <stop offset=".52" stop-color="#8dc540"/>
      <stop offset=".76" stop-color="#009348"/>
      <stop offset="1" stop-color="#016938"/>
    </linearGradient>
    <linearGradient id="linear-gradient-2" x1="125.48" y1="407.06" x2="387.01" y2="228.95" xlink:href="#linear-gradient"/>
    <linearGradient id="linear-gradient-3" x1="125.17" y1="292" x2="506.8" y2="292" xlink:href="#linear-gradient"/>
  </defs>
  <path class="cls-17" d="M450.95,176.26s13.82,3.12,49.09-54.29c10.01-17.79,41.59-37.21,79.21,4.96,27.57,31.65,20.79,66.53-1.28,90.69-19.11,17.86-34.23,29.59-81.3,30.51,0,0-14.73-31.27-24.01-37.58-18.57-12.63-21.73-34.3-21.73-34.3Z"/>
  <path class="cls-20" d="M450.95,176.26s13.82,3.12,49.09-54.29c10.01-17.79,29.59-33.81,67.22,8.36,27.57,31.65,23.23,54.81,1.17,78.98-19.12,17.86-24.68,37.91-71.75,38.84,0,0-14.73-31.27-24.01-37.58-18.57-12.63-21.73-34.3-21.73-34.3Z"/>
  <path class="cls-7" d="M522.37,246.8c-7.39,1.12-25.69,1.34-25.69,1.34,45.89-.9,61.25-12.22,81.07-30.75,19.75-21.63,30.47-56.71,1.26-90.25-20.34-22.8-37.8-26.16-48.88-24.96-14.6,1.59-24.97,11.34-29.81,19.94-35,56.96-48.88,54.58-49.45,54.45l.14-.63c.13.03,14.15,2.18,48.75-54.15,4.91-8.73,15.47-18.64,30.29-20.25,11.22-1.22,28.91,2.16,49.43,25.17,29.49,33.86,18.68,69.27-1.28,91.13-15.7,14.67-28.6,24.85-55.84,28.96Z"/>
  <path d="M549.7,199.97s31.81.84,21.8-36.72c-5.66-17.37-38.21-28.95-48.61-.04-10.4,28.91-22.2,48.75-38.29,48.58,0,0,9.04,4.56,22.09,2.59,39.47-5.97,43.01-14.42,43.01-14.42Z"/>
  <path d="M554.26,180.19c-3.95-4.61-8.33-16.32-12.2-11.83-11.36,12.79-23.48,26.6-38.61,33.16-5.63,6.63-11.83,10.36-18.84,10.29,0,0,9.04,4.56,22.09,2.59,39.47-5.97,43.01-14.42,43.01-14.42,0,0,20.8.54,23.47-19.11-.82.64-1.79,1.16-2.95,1.47-5.63,1.5-12,2.46-15.95-2.15Z"/>
  <path class="cls-7" d="M487.36,212.14c-1.03.16-3.12-.43-3.12-.43,14.18.16,26.36-15.29,38.34-48.6,5.65-15.72,16.89-17.91,23.1-17.82,11.44.17,22.92,8.02,26.12,17.86,3.33,12.5,2.43,22.11-2.69,28.59-6.92,8.77-19.41,7.9-19.41,7.9.12,0,12.19.21,18.91-8.3,4.98-6.31,5.84-15.74,2.57-28.01-3.12-9.58-14.33-17.23-25.52-17.4-6.03-.09-16.96,2.05-22.48,17.39-8.01,22.28-16.16,36.63-24.95,43.73-3.51,2.83-7.12,4.51-10.87,5.07Z"/>
  <path class="cls-12" d="M432.14,153.22s40.08-11.87,71.35-36.34c-.92,18.16-31.5,53.11-53.07,65.49l-18.28-29.14Z"/>
  <path class="cls-7" d="M432.14,153.22s40.08-11.87,71.35-36.34c-.92,18.16-38.68,40.62-64.4,47.41l-6.95-11.07Z"/>
  <path class="cls-12" d="M450.01,182.61c21.18-12.15,51.44-46.81,53.11-65.03-30.88,23.93-70.49,35.83-70.89,35.95l-.18-.62c.4-.12,40.38-12.14,71.24-36.29l.56-.43-.03.7c-.74,14.39-20.27,39.74-39.09,55.83-4.97,4.25-14.71,9.88-14.71,9.88Z"/>
  <path class="cls-17" d="M185.39,215.2s-78.39,30.26-129.49,44.15c14.39,10.42,31.76,15.88,31.76,15.88-19.85,11.91-36.22,58.54-25.3,107.66,6.94-5.95,19.35-15.88,19.35-15.88-5.96,19.85-7.44,66.48,28.77,114.11,6.94-16.37,13.81-26.29,13.81-26.29,14.97,26.29,66.06,58.05,73.01,71.94.99-12.9,0-25.3,0-25.3,14.88,15.88,35.22,34.23,34.23,57.05,11.41-5.96,21.83-23.32,24.31-29.76,7.94,2.48,15.88,39.69,0,57.05,16.87.5,42.63-11.91,57.28-22.82,1.76,6.45-9.16,33.24-9.16,33.24,11.91-5.46,64-22.82,89.3-55.07,0,7.44-2.98,26.3-2.98,26.3,8.93-12.41,46.64-57.55,47.63-79.88,4.46.99,5.46,28.28,3.97,36.71,6.45-2.48,38.7-35.72,47.13-74.92,5.46,7.44,8.93,25.5,8.93,29.37,4.47-1.58,36.72-24.41,30.27-87.41,10.42,8.44,16.87,14.39,16.87,14.39,4.47-18.85-9.18-100.46-62.01-123.54-52.84-23.07-297.68-66.98-297.68-66.98Z"/>
  <path class="cls-20" d="M78.78,343.95c-7.44-11.16-5.95-23.81.75-34.23,1.49-2.97,2.97-5.21,4.47-7.44,2.23-3.72,4.47-7.44,6.7-10.42,7.44-9.68,13.4-19.35,21.58-27.54,13.76-13.07,40.28-8.48,34.03.36-18.12,21.56-50.44,55.42-24.81,113.49,19.95,45.18,65.43,88.59,164.8,109.46,6.14.72,16.69-9.22,29.76-23.61,26.51,21.95,65.86,27.19,99.12,16.11,4.47-1.49,7.44-6.7,7.44-11.16,0-18.61-3.72-36.47,0-55.07.75-3.72,2.98-6.7,5.21-9.68,7.44-8.93,19.35-11.91,26.79-20.83,9.44-11.22,11.86-25.24,11.34-39.48,6.44-7.26,11.25-16.75,17.44-31.29,3.17-7.45,5.84-16.4,7.72-26.31,46.19,27.38,58.22,101.55,53.98,119.4,0,0-6.45-5.95-16.87-14.39,6.45,63.01-25.8,85.83-30.27,87.41,0-3.87-3.47-21.92-8.93-29.37-8.43,39.2-40.68,72.44-47.13,74.92,1.49-8.44.5-35.72-3.97-36.71-.75,16.76-22.17,46.37-36.59,65.34,3.3-12.55,3.89-25.78,2.66-38.55-18.61,7.44-26.05,30.51-40.19,44.65-2.98,2.97-5.95,5.95-8.93,7.44-5.21,2.97-10.42,6.7-15.63,10.42,2.98-15.62,9.68-31.25.75-46.88-8.19,8.19-17.12,14.89-27.54,20.84-8.19,5.21-18.6,7.44-28.28,6.7-1.49-.74,2.97-41.67-10.42-51.35-5.21-4.47-45.4,14.14-49.12,11.16-16.38-11.91-23.82-31.26-38.7-43.9-2.98,5.21-1.49,14.14-8.93,11.16-18.6-6.7-51.35-62.51-61.03-69.21-2.98-2.23-10.42,8.93-12.65,9.67,0-4.47.75-8.93-.74-13.39-6.7-21.58-14.88-47.63-3.72-69.21-5.96-.74-10.42,3.72-15.63,5.95-1.49.75-3.72.75-4.47,0-.74-.74.75-2.98,0-4.47Z"/>
  <path class="cls-7" d="M303.63,596.09c.11-.26,10.28-25.34,9.26-32.45-15.27,11.23-40.48,23.02-57.05,22.55l-.81-.03.55-.6c10.09-11.04,10.69-30.89,6.98-44.64-1.68-6.23-4.14-10.64-6.49-11.68-2.67,6.6-13.01,23.7-24.35,29.62l-.57.3.03-.64c.88-20.22-15.09-36.88-29.18-51.58-1.44-1.51-2.86-2.98-4.24-4.44.21,3.26.75,13.67-.07,24.31l-.1,1.34-.6-1.2c-2.98-5.95-14.25-15.3-27.29-26.12-17.24-14.3-36.74-30.47-45.41-45.29-1.45,2.2-7.45,11.61-13.45,25.74l-.25.59-.39-.51c-16.05-21.11-26.24-43.87-30.27-67.64-3.87-22.84-.77-38.88,1.11-45.68-3,2.41-12.65,10.19-18.42,15.14l-.47.4-.13-.61c-10.6-47.71,4.48-94.62,24.79-107.64-3.51-1.19-18.52-6.57-31.1-15.68l-.63-.46.75-.21c50.5-13.73,128.67-43.84,129.45-44.14l.1-.04.1.02c2.45.44,245.49,44.18,297.76,67,28.82,12.58,44.56,41.51,52.69,63.56,10.02,27.15,11.6,51.66,9.53,60.4l-.15.62-.46-.43c-.07-.06-6.27-5.78-16.16-13.81,3.17,32.69-4.3,53.96-11.17,66.07-8.14,14.35-17.54,20.17-19.42,20.84l-.5.17v-.53c0-3.43-3.13-20.55-8.38-28.45-8.62,38.43-40.19,71.66-47.18,74.35l-.61.24.11-.65c1.48-8.35.38-33.49-3.26-36.09-1.31,18.99-27.38,52.97-41.45,71.31-2.68,3.49-4.79,6.25-6.22,8.23l-.91,1.27.24-1.54c.03-.18,2.71-17.21,2.95-25.15-21.85,27.12-61.89,43.35-81.24,51.19-3.24,1.31-5.79,2.34-7.51,3.13l-.85.39.35-.87ZM393.64,541.16c0,6.16-2.05,20.21-2.75,24.85,1.36-1.85,3.16-4.19,5.33-7.02,14.15-18.45,40.5-52.79,41.33-71.43l.02-.44.44.09c4.74,1.05,5.7,27.25,4.37,36.44,3.64-1.96,12.71-10.56,22.04-23.28,8.56-11.66,19.7-29.98,24.25-51.08l.17-.81.49.67c5.38,7.33,8.7,24.41,8.98,29.03,2.61-1.27,11.07-7.11,18.55-20.3,6.88-12.13,14.37-33.52,10.99-66.52l-.09-.89.7.56c8.72,7.06,14.73,12.44,16.41,13.97,2.11-10.43-.9-35.65-9.64-59.35-8.08-21.92-23.72-50.66-52.3-63.14-51.78-22.61-291.33-65.82-297.49-66.94-3.17,1.22-78.93,30.32-128.67,43.92,14.05,9.97,30.84,15.31,31.01,15.37l.79.25-.71.42c-20.35,12.21-35.65,58.93-25.26,106.65,6.95-5.93,18.76-15.38,18.88-15.48l.93-.75-.34,1.14c-6.05,20.17-6.85,66.65,28.33,113.27,6.8-15.87,13.53-25.67,13.6-25.77l.34-.49.29.51c8.44,14.84,28.15,31.18,45.54,45.6,12.35,10.24,23.11,19.17,26.87,25.26.83-12.28-.08-23.89-.09-24.01l-.08-1.06.73.78c1.6,1.7,3.26,3.43,4.95,5.2,14.04,14.66,29.94,31.24,29.41,51.48,11.15-6.2,21.21-23.12,23.57-29.26l.13-.33.33.1c2.73.85,5.46,5.46,7.31,12.32,3.7,13.7,3.16,33.37-6.61,44.73h.18c16.56,0,41.25-11.73,56.07-22.76l.44-.32.14.53c1.61,5.91-6.95,27.91-8.83,32.62,1.68-.74,3.95-1.66,6.7-2.77,19.49-7.9,60.06-24.33,81.62-51.82l.66-.84v1.07Z"/>
  <path class="cls-12" d="M159.79,255.46c-18.05,21.59-50.28,55.49-24.72,113.64,19.88,45.24,65.21,88.7,164.25,109.6,18.98,2.23,80.37-98.23,127.25-116.09,46.88-17.86,53.58-22.33,69.21-59.16,15.63-36.83,18.98-110.5-24.56-154.04-39.07-37.95-101.58-35.72-107.16-35.72-85.95-27.91-133.94,22.33-158.51,22.33-46.95.3-17.93,79.92-45.76,119.44Z"/>
  <path class="cls-7" d="M218.19,427.98c-124.78-63.28-47.13-165.9-40.43-185.99,8.93-26.05,3.72-54.33,13.39-80.37,3.31-8.59,7.06-17.04,10.98-25.41,1.1-.11,2.23-.18,3.42-.19,24.56,0,72.56-50.23,158.51-22.33,5.58,0,68.09-2.23,107.16,35.72,43.53,43.53,40.18,117.2,24.56,154.04-15.62,36.84-22.33,41.3-69.21,59.16-32.88,12.53-72.91,65.7-100.43,95.56-18.32-.1-93.04-22.63-107.95-30.19Z"/>
  <path class="cls-11" d="M423.73,229.72s-29.42-12.22-85.23-4.07c-10.42-44.68-14.59-54.19-44.59-61.05-41.64-3.88-62.05,59.57-60.63,84.86-19.29,7.18-55.83,9.8-55.83,9.8,9.23-32.15,49.88-62.04,53.37-101.04,9.81-34.76,55.58-57.6,127.77-39,46.14,9.67,116.84,7.43,138.42,95.99-13.2-29.77-69.49-54.49-73.28,14.51Z"/>
  <path class="cls-5" d="M272.76,326.83s-11.92,78.88-2.48,101.15c-16.87-5.4-153.53-24.79-88.92-178.53,22.93-5.64,95.25-2.71,132.89,14.26-46.23,22.96-39.59,48.96-41.49,63.11Z"/>
  <path class="cls-2" d="M162.53,251.13c-.85,1.49-1.75,2.93-2.73,4.33-13.72,16.4-35.61,39.92-34.13,75.78,48.53-37.66,93.87-53.87,113.81-57.49-26.31-25.38-57.33-25.85-76.95-22.62Z"/>
  <path class="cls-1" d="M319.35,164.6c2.67-15.49-1.56-43.25-6.64-59.34-17.01.06-31.95,3.07-45.06,7.19,15.12,10.06,40.96,29.66,51.7,52.15Z"/>
  <path class="cls-1" d="M416.09,175.82c8.13-3.53,22.61-27.42,28.57-45.17-10.33-5.27-21.03-8.92-31.12-11.43,3.75,9.55,7.5,27.39,2.55,56.61Z"/>
  <path class="cls-1" d="M387.73,114.73c-12.62-1.31-21.69-1.03-23.66-1.03-12.76-4.14-24.67-6.55-35.8-7.67,10.66,18.98,36.94,69.5,38.72,109.18,7.4-8.08,26.97-67.55,20.75-100.47Z"/>
  <path class="cls-3" d="M319.35,164.6c-9.16-19.18-29.29-36.25-44.4-47.1,11.36-3.52,24.69-5.3,39.82-4.86,4.06,16.24,6.88,38.63,4.58,51.96Z"/>
  <path class="cls-3" d="M416.09,175.82c3.43-20.26,2.68-35.05.64-45.4,8.31,2.31,16.55,5.26,24.45,9.18-6.99,15.97-18.27,33.26-25.09,36.22Z"/>
  <path class="cls-3" d="M366.98,215.2c-1.57-34.94-22.13-78.28-34.3-101.09,8.21,1.09,16.86,2.77,25.91,5.1,9.28,1.94,19.56,3.41,30.22,5.22,1.63,33.73-15.12,83.44-21.84,90.77Z"/>
  <path class="cls-2" d="M185.34,431.42c8.86,6.67,18.89,12.99,30.24,18.84,5.84-16.38,21.37-37.3,28.61-44.54-37.55,3.37-52.78,16.7-58.85,25.7Z"/>
  <path class="cls-2" d="M233.02,342.52c-56.08-6.77-86.46,11.47-99.51,22.85.5,1.23,1.01,2.48,1.56,3.73,6.9,15.69,16.86,31.17,31.05,45.56,19.23-38.04,54.74-63.41,66.9-72.14Z"/>
  <path class="cls-1" d="M239.48,273.75c-16.65,3.03-51,14.84-90.14,40.57,4.58-27.34,18.01-51.12,24.82-64.44,19.02-.99,43.76,3.07,65.32,23.87Z"/>
  <path class="cls-1" d="M225.2,431c-2.97-1.16-5.36-2.18-7.01-3.02-6.45-3.27-12.35-6.65-17.76-10.11,9.34-5.48,23.2-10.31,43.76-12.16-4.54,4.54-12.35,14.47-18.98,25.29Z"/>
  <path class="cls-1" d="M233.02,342.52c-10.33,7.41-37.47,26.82-57.21,55.79-14.14-14.21-21.96-29.25-25.56-44.21,16.95-8.82,43.57-16.31,82.77-11.58Z"/>
  <path class="cls-3" d="M165.47,304.31c2.19-15.99,7.19-34.08,15.78-54.55,17.83.34,39.25,5.69,58.23,23.99-14.32,2.6-41.73,11.71-74.01,30.56Z"/>
  <path class="cls-3" d="M234.49,417.32c-5.09-1.98-10.38-4.32-15.69-7.09,7.06-2.03,15.43-3.63,25.39-4.52-2.49,2.49-5.97,6.61-9.7,11.61Z"/>
  <path class="cls-3" d="M233.02,342.52c-8.65,6.21-29.09,20.83-47.1,42.43-8.64-10-15.55-22.36-19.12-37.7,16.27-5.2,37.98-8.14,66.22-4.73Z"/>
  <path class="cls-4" d="M299.25,479.07c-46.03-9.71-83.7-25.1-111.96-45.74-23.85-17.42-41.53-38.98-52.56-64.08-24.48-55.7,3.62-88.97,22.21-110.98.88-1.04,1.74-2.06,2.55-3.03,11.7-16.62,13.34-40.95,14.78-62.41,2.06-30.59,3.83-57.01,31.28-57.19,7.07,0,16.12-4.22,27.59-9.56,19.22-8.95,45.53-21.21,80.1-21.21,16.49,0,33.61,2.84,50.88,8.44.21,0,.49,0,.83,0,.66,0,1.56-.02,2.67-.02,20.13,0,70.55,3.49,103.86,35.85,24.74,24.74,32.45,57.03,34.57,79.76,2.45,26.32-1.26,54.25-9.93,74.69-15.73,37.08-22.62,41.54-69.42,59.36-25.73,9.8-56.38,45.18-81,73.61-20.59,23.77-36.84,42.54-45.74,42.54-.23,0-.46-.01-.71-.04ZM364.96,114.06c-.38,0-.68,0-.9,0l-.11-.02c-17.21-5.59-34.28-8.42-50.71-8.42-34.41,0-60.63,12.22-79.78,21.14-11.55,5.38-20.67,9.63-27.9,9.63-26.76.17-28.51,26.27-30.54,56.49-1.45,21.56-3.09,46-14.94,62.81-.83.99-1.69,2.01-2.57,3.05-18.47,21.87-46.39,54.93-22.1,110.2,24.03,54.7,79.21,91.5,163.95,109.38.19.02.39.03.6.03,8.55,0,25.52-19.59,45.18-42.28,24.68-28.49,55.39-63.95,81.3-73.82,46.54-17.73,53.38-22.15,69-58.96,15.98-37.66,18.94-110.21-24.47-153.63-33.11-32.17-83.29-35.64-103.34-35.64-1.11,0-2.01,0-2.66.02Z"/>
  <path class="cls-12" d="M439.66,250.01l.5-.55c-18.47-16.67-44.3-19.93-62.71-19.73-19.93.22-35.67,5.19-35.67,5.19.16-.04,15.86-4.23,35.69-4.44,18.27-.21,43.9,3.03,62.19,19.54Z"/>
  <path class="cls-10" d="M356.98,232.21s-49.67,51.65-103.31,32.28c-25.83-9.93-30.78-28.25-21.36-45.7,13.41-24.83,2.98-65.56,28.31-75.5,22.35-7.95,92.88-6.95,96.36,88.91Z"/>
  <path class="cls-10" d="M401.31,251.31s39.17,49.34,81.47,30.84c20.37-9.49,24.27-26.98,16.84-43.65-10.58-23.72-2.35-62.63-22.33-72.12-17.63-7.59-73.25-6.64-75.99,84.93Z"/>
  <path d="M328.26,221.25c0,27.52-17.01,49.83-38,49.83s-38-22.31-38-49.83c0-27.52,17.01-49.83,38-49.83s38,22.31,38,49.83Z"/>
  <path class="cls-17" d="M328.26,225.65c0,27.52-17.01,49.83-38,49.83-20.98,0-38-22.31-38-49.83,0-27.52,17.01-49.83,38-49.83,20.98,0,38,22.31,38,49.83Z"/>
  <path class="cls-17" d="M252.67,218.48c2.65-24.12,18.47-42.66,37.6-42.66,20.98,0,38,22.31,38,49.83,0,6.31-.9,12.34-2.54,17.89-27.02,4.75-57.09-2.61-73.06-25.06Z"/>
  <path d="M251.9,225.65c0-27.68,17.21-50.2,38.37-50.2,21.15,0,38.37,22.52,38.37,50.2,0,27.68-17.21,50.2-38.37,50.2-21.16,0-38.37-22.52-38.37-50.2ZM252.64,225.65c0,27.27,16.88,49.46,37.62,49.46,20.74,0,37.62-22.19,37.62-49.46s-16.88-49.46-37.62-49.46c-20.75,0-37.62,22.19-37.62,49.46Z"/>
  <path class="cls-12" d="M351.15,266.87l.4-.63c-25.63-16.02-72.5-19.42-96.71-20.06-9.23-.24-15.36.66-15.36.66.76-.02,76.45-1.97,111.67,20.04Z"/>
  <path class="cls-16" d="M300.89,225.23c0,11.69-7.45,21.16-16.63,21.16-9.18,0-16.63-9.48-16.63-21.16,0-11.69,7.45-21.16,16.63-21.16,9.19,0,16.63,9.47,16.63,21.16Z"/>
  <path class="cls-25" d="M267.25,225.23c0-11.87,7.63-21.53,17.01-21.53s17.01,9.66,17.01,21.53c0,11.88-7.63,21.53-17.01,21.53s-17.01-9.66-17.01-21.53ZM268,225.23c0,11.46,7.3,20.79,16.26,20.79s16.26-9.33,16.26-20.79-7.29-20.79-16.26-20.79-16.26,9.32-16.26,20.79Z"/>
  <path d="M490.62,235.79c0,25.31-13.77,45.83-30.76,45.83-16.99,0-30.76-20.52-30.76-45.83,0-25.31,13.77-45.83,30.76-45.83,16.99,0,30.76,20.52,30.76,45.83Z"/>
  <path class="cls-17" d="M490.62,240.19c0,25.31-13.77,45.83-30.76,45.83-16.99,0-30.76-20.52-30.76-45.83,0-25.31,13.77-45.83,30.76-45.83,16.99,0,30.76,20.52,30.76,45.83Z"/>
  <path class="cls-17" d="M429.13,241.53c0-.45-.02-.89-.02-1.34,0-25.31,13.77-45.83,30.76-45.83,16.99,0,30.76,20.52,30.76,45.83,0,5.59-.68,10.94-1.9,15.89-20.69,4.73-45.01.55-59.59-14.55Z"/>
  <path d="M428.73,240.19c0-25.47,13.96-46.2,31.13-46.2,17.17,0,31.13,20.73,31.13,46.2s-13.96,46.2-31.13,46.2c-17.16,0-31.13-20.73-31.13-46.2ZM429.47,240.19c0,25.06,13.63,45.45,30.39,45.45s30.39-20.39,30.39-45.45-13.63-45.45-30.39-45.45c-16.75,0-30.39,20.39-30.39,45.45Z"/>
  <path class="cls-16" d="M466.7,240.88c0,14.18-7.3,25.67-16.31,25.67-9.01,0-16.31-11.49-16.31-25.67s7.3-25.67,16.31-25.67c9.01,0,16.31,11.49,16.31,25.67Z"/>
  <path class="cls-25" d="M433.71,240.88c0-14.36,7.48-26.05,16.68-26.05s16.68,11.68,16.68,26.05c0,14.36-7.48,26.05-16.68,26.05s-16.68-11.68-16.68-26.05ZM434.46,240.88c0,13.95,7.15,25.3,15.94,25.3,8.79,0,15.94-11.35,15.94-25.3,0-13.95-7.15-25.3-15.94-25.3-8.79,0-15.94,11.35-15.94,25.3Z"/>
  <path d="M440.87,238.91c0,7.83,4.25,14.18,9.5,14.18s9.49-6.35,9.49-14.18c0-7.83-4.25-14.18-9.49-14.18-5.25,0-9.5,6.35-9.5,14.18Z"/>
  <path class="cls-17" d="M447.65,224.37c0,2.64,2.14,4.77,4.77,4.77s4.78-2.14,4.78-4.77c0-2.64-2.14-4.78-4.78-4.78s-4.77,2.14-4.77,4.78Z"/>
  <path class="cls-17" d="M439.83,230.26c0,1.72,1.39,3.1,3.1,3.1,1.71,0,3.1-1.39,3.1-3.1,0-1.71-1.39-3.1-3.1-3.1s-3.1,1.39-3.1,3.1Z"/>
  <path d="M432.94,364.76s-48.1,48.9-21.31,96.53c4.96,7.44,21.83,30.76-13.89,36.21-31.75,4.47-47.63-12.9-70.95-7.44-23.32,5.46-52.46,3.74-47.07-39.8-2.54-32.13.43-118.46,8.37-132.85,14.88,10.91,144.85,47.35,144.85,47.35Z"/>
  <path class="cls-18" d="M398.78,466.74c-6.7-18.6-19.35-34.98-23.81-55.07-4.36-19.63-2.73-45.66,11.05-60.51,26.01,7.73,46.93,13.59,46.93,13.59,0,0-48.1,48.9-21.31,96.53,4.84,7.26,21.01,29.63-11.4,35.78,1.13-10.4,1.67-20.36-1.45-30.33Z"/>
  <path class="cls-24" d="M358.1,493.5c-7.46-2.13-14.5-4.15-22-4.15-3.15,0-6.17.35-9.22,1.06-6.29,1.48-12.14,2.22-17.36,2.22-10.47,0-18.4-2.97-23.58-8.84-6.25-7.07-8.46-18.36-6.58-33.55-2.49-31.57.35-118.39,8.42-133.02l.2-.37.34.25c14.66,10.75,143.43,46.93,144.73,47.29l.61.17-.44.45c-.12.12-12.08,12.39-20.63,30.3-7.88,16.51-14.38,41.32-.63,65.76l.47.7c3.46,5.15,10.65,15.86,6.83,24.55-2.58,5.88-9.8,9.76-21.46,11.54-3.52.49-7.05.75-10.5.75h0c-11.34,0-20.41-2.6-29.19-5.11ZM288.23,317.95c-7.88,15.58-10.6,101.05-8.14,132.27v.04s0,.04,0,.04c-1.86,15,.3,26.1,6.4,33.01,5.03,5.7,12.78,8.59,23.02,8.59,5.17,0,10.96-.74,17.2-2.2,3.11-.73,6.18-1.08,9.39-1.08,7.6,0,14.7,2.03,22.21,4.18,8.73,2.49,17.75,5.08,28.98,5.08,3.41,0,6.91-.25,10.39-.74,11.39-1.74,18.41-5.47,20.88-11.11,3.65-8.31-3.39-18.79-6.77-23.83l-.49-.73c-13.92-24.74-7.36-49.8.6-66.46,7.68-16.1,18.11-27.67,20.34-30.05-10.63-2.99-128.13-36.16-144.02-46.99Z"/>
  <path class="cls-19" d="M432.94,364.76s-9.69-2.72-24.09-6.89c-5.44,17.76-26.18,93.69,9.6,115.64-1.89-5.06-5.09-9.62-6.83-12.22-26.79-47.63,21.31-96.53,21.31-96.53Z"/>
  <path class="cls-9" d="M432.94,364.76s-.86-.17-15.25-4.34c-5.44,17.76-36.39,76.93.77,113.09-1.89-5.06-5.09-9.62-6.83-12.22-26.79-47.63,21.31-96.53,21.31-96.53Z"/>
  <path class="cls-14" d="M418.26,473.82c-15.32-9.4-22.2-29.49-20.44-59.73,1.39-23.96,7.93-47.38,10.68-56.34l.11-.35.35.1c14.23,4.13,23.99,6.86,24.08,6.89l.61.17-.44.45c-.12.12-12.09,12.4-20.64,30.32-7.87,16.5-14.37,41.31-.63,65.74l.46.7c1.85,2.76,4.66,6.93,6.4,11.61l.38,1.01-.92-.57ZM409.1,358.33c-2.79,9.18-9.17,32.24-10.54,55.81-1.7,29.3,4.73,48.95,19.13,58.44-1.72-4.16-4.21-7.87-5.9-10.39l-.48-.72c-13.92-24.74-7.36-49.8.6-66.46,7.68-16.1,18.11-27.67,20.34-30.05-2.3-.65-11.08-3.13-23.14-6.62Z"/>
  <path class="cls-15" d="M364.5,436.47c-10.42-25.8-30.76-23.82-42.17-21.81-23.02-19.11-37.19-10.94-43.42-4.7-.22,16.04.05,30.62.81,40.28-5.39,43.55,23.75,45.26,47.07,39.8,23.32-5.46,39.19,11.91,70.95,7.44,2.74-.42,5.16-.94,7.31-1.55-21.98-12.12-31.88-38.01-40.55-59.47Z"/>
  <path class="cls-13" d="M311.71,460.04c-12.65-7.44-14.14-32-2.23-37.95,7.44-3.72,11.91,10.42,17.86,16.37,2.24-6.7-2.23-16.37,6.7-18.6,8.22-2.05,15.02-.21,21.62,2.6,3.33,3.36,6.37,7.9,8.84,14.02,5.38,13.32,11.24,28.35,20.17,40.74-13.02-3.76-24.37-10.86-37.98-13.45-11.91-2.23-24.56,2.23-34.98-3.72Z"/>
  <path class="cls-21" d="M358.1,493.5c-7.46-2.13-14.5-4.15-22-4.15-3.15,0-6.17.35-9.22,1.06-6.3,1.48-12.14,2.22-17.36,2.22-10.46,0-18.4-2.97-23.58-8.84-6.25-7.07-8.46-18.36-6.59-33.55-.75-9.47-1.03-23.77-.81-40.28v-.15l.11-.11c3.33-3.34,9-7.31,17.13-7.31,8.16,0,17.13,3.99,26.66,11.87,2.84-.49,6.58-1.05,10.63-1.05,14.9,0,25.58,7.78,31.78,23.12l.79,1.96c8.62,21.39,18.4,45.64,39.59,57.32l.79.44-.87.25c-2.21.63-4.68,1.16-7.36,1.57-3.52.49-7.05.75-10.5.75-11.34,0-20.41-2.6-29.19-5.11ZM364.94,438.58l-.79-1.96c-6.16-15.24-16.33-22.65-31.09-22.65-4.07,0-7.84.57-10.67,1.07l-.17.03-.13-.11c-9.44-7.84-18.3-11.81-26.31-11.81-7.79,0-13.25,3.78-16.49,6.99-.22,16.45.07,30.69.81,40.1v.04s0,.04,0,.04c-1.86,15,.3,26.1,6.4,33.01,5.03,5.7,12.78,8.59,23.02,8.59,5.17,0,10.95-.74,17.2-2.2,3.11-.73,6.18-1.08,9.39-1.08,7.6,0,14.7,2.03,22.21,4.18,8.73,2.49,17.75,5.08,28.98,5.08,3.41,0,6.91-.25,10.39-.74,2.29-.35,4.44-.79,6.39-1.3-20.88-11.97-30.57-36.01-39.13-57.25Z"/>
  <path class="cls-17" d="M326.6,404.13c-5.66-6.54-19.92-54.95-20.2-83.32,9.23-14.94,13.74,5.33,26.7-6.31-5.8,21.12-13.86,46.65-6.5,89.63Z"/>
  <path class="cls-17" d="M383.16,406.32c5.66-6.54,19.92-54.95,20.2-83.32-9.23-14.94-13.74,5.33-26.7-6.31,5.8,21.12,13.86,46.65,6.5,89.63Z"/>
  <path class="cls-21" d="M334.24,444.94l.74-.07c-2.67-26.94-18.64-35.19-18.8-35.27l-.33.67c.16.07,15.76,8.18,18.39,34.68Z"/>
  <path class="cls-19" d="M343.66,471.2c-57.55,7.94-54.08-21.83-53.39-56.54-.61-43.42,7.79-76.69,11.94-90.4-6.75-2.76-11.76-5.13-14.12-6.85-7.94,14.39-10.91,100.71-8.37,132.85-5.39,43.55,23.75,45.26,47.07,39.8,23.32-5.46,39.19,11.91,70.95,7.44,32.77-5.01,21.29-25.04,15.33-34.06-9.39,30.02-45.07,4.01-69.41,7.77Z"/>
  <path class="cls-9" d="M343.66,471.2c-57.55,7.94-54.08-21.83-53.39-56.54-.61-43.42,7.79-76.69,11.94-90.4-16.09,11.28-20.2,91-17.66,123.13-5.39,43.55,23.76,41.92,47.08,36.46,23.32-5.46,32.84,10.97,64.6,6.51,32.76-5,22.81-17.9,16.85-26.92-9.39,30.02-45.07,4.01-69.41,7.77Z"/>
  <path class="cls-15" d="M387.29,498.61c-11.34,0-20.41-2.6-29.19-5.11-7.46-2.13-14.5-4.15-22-4.15-3.15,0-6.17.35-9.22,1.06-6.3,1.48-12.14,2.22-17.36,2.22-10.46,0-18.4-2.97-23.58-8.84-6.25-7.07-8.46-18.36-6.59-33.55-2.49-31.57.35-118.39,8.42-133.02l.2-.37.34.25c2.2,1.61,6.92,3.9,14.04,6.81l.31.13-.1.32c-3.79,12.51-12.55,46.35-11.93,90.3-.03,1.61-.07,3.2-.11,4.78-.44,18.51-.81,34.5,8.44,43.97,5.73,5.86,14.8,8.71,27.75,8.71,5,0,10.68-.43,16.88-1.29,1.67-.26,3.42-.39,5.34-.39,7.31,0,15.34,1.91,23.1,3.75,7.63,1.81,14.83,3.52,21.26,3.52h0c10.17,0,16.33-4.57,19.41-14.4l.23-.75.43.65c4.14,6.27,9.25,15.49,5.85,23.14-2.6,5.85-9.81,9.72-21.44,11.5-3.52.49-7.05.75-10.5.75h0ZM309.51,491.9c5.17,0,10.95-.74,17.2-2.2,3.11-.73,6.18-1.08,9.39-1.08,7.6,0,14.7,2.03,22.21,4.18,8.72,2.49,17.74,5.08,28.98,5.08h0c3.41,0,6.91-.25,10.39-.74,11.35-1.73,18.37-5.45,20.87-11.06,3.13-7.06-1.41-15.68-5.36-21.78-3.26,9.67-9.59,14.18-19.87,14.18h0c-6.51,0-13.76-1.72-21.43-3.54-7.72-1.84-15.71-3.73-22.93-3.73-1.87,0-3.58.12-5.23.38-6.25.86-11.96,1.3-16.99,1.3-13.16,0-22.41-2.92-28.28-8.93-9.47-9.7-9.09-25.83-8.65-44.5.04-1.58.08-3.17.11-4.77-.61-43.67,8.01-77.4,11.87-90.19-6.65-2.73-11.2-4.92-13.53-6.52-7.87,15.58-10.6,101.05-8.13,132.27v.04s0,.04,0,.04c-1.86,15,.3,26.1,6.4,33.01"/>
  <path class="cls-17" d="M268.02,286.67s-3.25,39.66,49.85,82.81c23.51,19.1,55.51,27.45,97.85,1.07,33.86,25.67,78.34,15.07,90.7-16.19,11.62-31.26,10.88-86.33-88.1-75.16-43.16-19.35-95.52-29.63-133.48-5.07l-16.82,12.54Z"/>
  <path class="cls-20" d="M268.02,286.67s1.75,27.59,54.85,70.73c23.5,19.1,62.32,23.77,104.65-2.61,33.86,25.67,66.53,30.82,78.9-.43,11.62-31.26,10.88-86.33-88.1-75.16-43.16-19.35-95.52-29.63-133.48-5.07l-16.82,12.54Z"/>
  <path class="cls-7" d="M364.72,387.6c16.12,0,33.15-5.53,50.98-16.6,17.17,12.93,38.8,17.46,57.91,12.12,15.6-4.36,27.69-14.79,33.16-28.62,2.99-8.06,11.54-35.88-4.18-55.97-13.91-17.79-42.24-24.42-84.21-19.71-23.87-10.69-47.72-17.29-68.96-19.06-15.72-1.32-30.04-.07-42.82,3.69-12.38,3.84-22.04,10.85-22.04,10.85,43.42-28.09,102.34-8.78,133.6,5.24l.1.04h.1c41.75-4.72,69.89,1.81,83.64,19.4,15.48,19.8,7.03,47.29,4.07,55.25-5.38,13.6-17.29,23.87-32.66,28.17-18.96,5.3-40.44.76-57.47-12.15l-.21-.16-.22.13c-36.1,22.5-68.87,22.14-97.41-1.04-27.37-22.23-39.53-43.51-44.92-57.44-5.82-15.06-5.18-24.98-5.17-25.08,0,0-1.4,10.13,4.48,25.34,5.42,14.02,17.64,35.41,45.14,57.75,14.63,11.89,30.37,17.84,47.08,17.84Z"/>
  <path class="cls-7" d="M414.62,371.67c24.66-17.23,17.79-53.96,17.71-54.33l-.73.14c.07.36,6.85,36.63-17.41,53.58l.43.61Z"/>
  <path class="cls-22" d="M423.67,326.34s-17.01-36.22-47.77-52.59c-12.41-7.94-12.38-42.67,47.77-33.74,37.07,6.94,70.31,21.56,60.14,50.47-7.69,16.5-24.76,12.32-41.63,35.39-6.94,11.41-11.95,14.1-18.51.46Z"/>
  <path class="cls-6" d="M423.34,314.92c-5.96-13.4-10.42-28.28-22.33-37.21-9.67-7.44-23.81-16.37-17.12-29.02,2.48-4.25,6.49-7.32,11.13-9.45,7.51-1.05,16.93-.98,28.65.76,37.07,6.94,70.31,21.56,60.14,50.47-7.55,16.2-24.14,12.49-40.71,34.17-7.61,3.13-15.72-1.04-19.77-9.73Z"/>
  <path class="cls-6" d="M441.2,316.41c-17.11-16.37-24.56-38.7-40.18-58.05-7.62-9.66-.32-16.54,9.35-19.69,4.07.19,8.49.62,13.31,1.34,37.07,6.94,70.31,21.56,60.14,50.47-6.6,14.17-20.12,13.11-34.48,27.12-3.27.72-6.13.57-8.14-1.18Z"/>
  <path d="M423.34,326.49c-.17-.36-17.31-36.29-47.63-52.43-5.46-3.5-8.04-11.4-5.99-18.4,1.53-5.25,8.11-17.48,35.88-17.48,5.5,0,11.61.49,18.15,1.46,31.66,5.93,51.51,15.52,59,28.5,3.85,6.66,4.32,14.21,1.41,22.49-3.78,8.1-9.83,11.31-16.84,15.03-7.58,4.02-16.18,8.58-24.81,20.39-4.2,6.9-7.27,9.85-10.27,9.85h0c-2.98,0-5.81-2.99-8.9-9.42ZM370.43,255.87c-1.96,6.69.48,14.24,5.65,17.55,30.52,16.24,47.76,52.4,47.92,52.76,2.91,6.05,5.6,8.99,8.23,8.99h0c2.67,0,5.64-2.93,9.65-9.51,8.76-11.97,17.43-16.57,25.08-20.64,6.89-3.66,12.84-6.81,16.5-14.66,2.83-8.03,2.37-15.38-1.36-21.84-7.28-12.6-27.51-22.33-58.48-28.14-6.49-.96-12.56-1.45-18.03-1.45-27.26,0-33.67,11.85-35.16,16.94Z"/>
  <path class="cls-23" d="M275.51,445.1c.1-.16,9.88-16.08,28.77-35.42,17.43-17.85,46.39-42.35,85.41-57.7l-1.12-.82c-39.14,15.4-67.36,40.11-84.84,58.01-18.94,19.4-28.23,35.93-28.23,35.93Z"/>
  <path class="cls-23" d="M233.29,398.53c.13-.13,13.27-13.33,35.92-28.11,20.9-13.63,54.41-31.44,95.35-38.83l-.75-1.5c-41.06,7.41-74.05,26.04-95.02,39.71-22.72,14.82-35.5,28.72-35.5,28.72Z"/>
  <path class="cls-23" d="M227.2,320.49c.66-.24,64.9-21.93,105.03-7.2l.29-.69c-38.75-16.24-105.32,7.89-105.32,7.89Z"/>
  <path class="cls-23" d="M517.47,418.3s-21.02-45.51-67-58.59l-.51,1.11c5.41,1.44,42.59,11.77,67.51,57.48Z"/>
  <path class="cls-23" d="M588.52,387.54s-42.28-37.08-119.35-36.28v1.76c.7-.02,70.9-2.78,119.35,34.52"/>
  <path class="cls-23" d="M571.21,338.07s-20.42-13.48-87.39-12.61l.13,1.88c.64,0,64.3-1.49,87.26,10.72Z"/>
  <path class="cls-7" d="M328.63,253.16s8.75-24.56,62.33-19.72c-9.67.37-27.9,15.54-24.93,25.82-7.07-4.98-37.41-6.1-37.41-6.1Z"/>
  <path d="M274.86,229c0,7.83,4.25,14.18,9.49,14.18s9.5-6.35,9.5-14.18c0-7.83-4.25-14.18-9.5-14.18-5.25,0-9.49,6.35-9.49,14.18Z"/>
  <path class="cls-17" d="M281.63,214.46c0,2.64,2.14,4.77,4.77,4.77,2.64,0,4.78-2.14,4.78-4.77s-2.14-4.78-4.78-4.78-4.77,2.14-4.77,4.78Z"/>
  <path class="cls-17" d="M273.82,220.35c0,1.72,1.39,3.1,3.1,3.1,1.72,0,3.1-1.39,3.1-3.1,0-1.71-1.39-3.1-3.1-3.1s-3.1,1.39-3.1,3.1Z"/>
  <path class="cls-8" d="M346.9,439.3c1.27,6.68,5.15,11.56,8.68,10.89,3.52-.67,5.36-6.63,4.09-13.31-1.27-6.68-5.15-11.56-8.68-10.89-3.52.67-5.35,6.63-4.09,13.31Z"/>
  <path class="cls-17" d="M422.75,244.69c-.63,1.5,11.2,7.87,26.42,14.21,15.22,6.35,28.06,10.27,28.69,8.76.63-1.5-11.2-7.87-26.42-14.21-15.22-6.35-28.07-10.27-28.69-8.76Z"/>
  <path class="cls-17" d="M213.3,157.16s-15.25,5.95-65.49-53.58c-14.52-18.6-53.96-35.35-89.68,19.35-26.05,40.93-12.28,79.63,17.12,103.44,24.93,17.12,44.23,27.91,98.19,20.84,0,0,11.44-38.29,20.95-47.1,19.05-17.65,18.91-42.95,18.91-42.95Z"/>
  <path class="cls-20" d="M213.3,157.16s-15.25,5.95-65.49-53.58c-14.52-18.6-39.66-33.54-75.38,21.16-26.05,40.93-17.09,66.66,12.3,90.47,24.93,17.12,34.75,39.07,88.71,32,0,0,11.44-38.29,20.95-47.1,19.05-17.65,18.91-42.95,18.91-42.95Z"/>
  <path class="cls-7" d="M143.84,250.11c8.64,0,29.6-2.91,29.6-2.91-52.61,6.9-72.11-3.39-97.97-21.15-26.31-21.31-44.62-59.56-17.01-102.93,19.31-29.57,38.69-36.42,51.55-36.96,16.96-.71,30.5,8.65,37.51,17.64,49.84,59.07,65.29,53.94,65.92,53.7l-.27-.69c-.15.05-15.79,4.93-65.07-53.48-7.12-9.13-20.9-18.64-38.12-17.92-13.04.55-32.67,7.46-52.15,37.3-27.86,43.79-9.39,82.4,17.2,103.94,20.48,14.06,36.98,23.46,68.82,23.46Z"/>
  <path d="M104.53,201.31s-36.22,6.45-31.26-38.2c3.47-20.83,38.68-39.69,55.56-8.43,16.88,31.25,33.79,51.89,52.15,48.91,0,0-9.54,6.78-24.8,6.78-46.14,0-51.64-9.06-51.64-9.06Z"/>
  <path d="M95.9,179.48c3.72-5.95,6.7-20.09,11.91-15.63,15.2,12.66,31.42,26.35,49.86,31.23,7.58,6.61,15.31,9.8,23.31,8.5,0,0-9.54,6.78-24.8,6.78-46.14,0-51.64-9.06-51.64-9.06,0,0-23.68,4.21-30.12-17.79,1.05.59,2.24,1.01,3.63,1.17,6.7.74,14.14.74,17.86-5.21Z"/>
  <path class="cls-7" d="M177.87,204.45c1.21,0,3.5-1.03,3.5-1.03-16.18,2.63-32.77-12.92-52.21-48.93-9.17-16.99-22.4-17.55-29.48-16.38-13.05,2.17-24.81,13.12-26.78,24.93-1.65,14.86,1.04,25.69,8.01,32.22,9.42,8.83,23.55,5.68,23.55,5.68-.14.02-13.9,2.35-23.05-6.22-6.78-6.36-9.39-16.98-7.77-31.57,1.91-11.49,13.41-22.17,26.16-24.3,6.87-1.14,19.74-.59,28.69,16,13,24.08,24.79,39.08,36.07,45.68,4.5,2.63,8.92,3.92,13.3,3.92Z"/>
  <path class="cls-12" d="M230.83,127.58s-47.86-6.65-87.83-29.22c4.19,20.59,45.17,55.27,71.96,65.69l15.86-36.47Z"/>
  <path class="cls-7" d="M230.83,127.58s-47.86-6.65-87.83-29.22c4.19,20.59,51.22,39.75,81.8,43.08l6.03-13.86Z"/>
  <path class="cls-12" d="M215.48,164.25c-26.3-10.23-66.87-44.62-71.93-65.16,39.43,22.02,86.75,28.79,87.23,28.86l.1-.74c-.47-.07-48.25-6.9-87.69-29.18l-.71-.4.16.8c3.32,16.32,30.03,41.92,54.32,57.07,6.41,3.99,18.52,8.75,18.52,8.75Z"/>
</svg>
